<svg t="1776344597949" class="icon" viewBox="0 0 1024 1024" version="1.1" xmlns="http://www.w3.org/2000/svg" p-id="16718" width="48" height="48"><path d="M750.112 3.008c-16.16-0.16-32 5.664-44 16.672-0.672 0.672-1.504 1.344-2.176 2.016l-339.84 375.84L165.6 234.88l-17.344-15.008a42.752 42.752 0 0 0-43.68-6.496c-0.16 0-0.32 0.16-0.512 0.16l-77.504 32c-0.992 0.512-2.176 0.992-3.168 1.504a21.216 21.216 0 0 1-2.176 1.152l-1.504 0.992c-0.672 0.512-1.504 0.992-2.176 1.504-0.32 0.32-0.832 0.672-1.152 0.992-0.672 0.512-1.344 0.992-1.824 1.504-0.672 0.512-1.152 0.992-1.664 1.504-0.32 0.32-0.832 0.832-1.344 1.504a11.36 11.36 0 0 0-1.344 1.504l-1.504 2.016a8.128 8.128 0 0 0-0.992 1.344c-0.512 0.672-0.992 1.504-1.504 2.176-0.16 0.512-0.512 0.992-0.832 1.504-0.32 0.672-0.672 1.344-0.992 2.176l-0.832 1.824c-0.16 0.672-0.512 1.344-0.672 2.016a9.92 9.92 0 0 0-0.672 2.016 9.984 9.984 0 0 0-0.672 2.336l-0.512 1.664c0 0.672-0.16 1.504-0.32 2.336 0 0.672-0.16 1.344-0.16 2.176-0.16 1.152-0.16 2.336-0.16 3.488v454.656c0 17.152 10.336 32.672 26.176 39.168l77.504 32.672c14.848 6.176 32 3.328 44.16-7.008l17.344-15.008 198.496-162.656 339.84 375.84c0.992 0.992 2.176 2.016 3.168 2.848 0.832 0.672 1.664 1.504 2.496 2.176 0.672 0.672 1.504 1.152 2.336 1.824 0.992 0.672 1.824 1.152 2.656 1.824 0.992 0.512 2.016 1.152 2.848 1.664l2.848 1.504 2.848 1.344c0.992 0.512 2.016 0.832 3.008 1.152 0.992 0.512 2.176 0.832 3.168 1.152 0.832 0.32 1.824 0.512 2.848 0.832s2.176 0.672 3.328 0.832c0.992 0.16 2.016 0.512 3.008 0.672s2.016 0.32 3.168 0.32c0.992 0.16 2.176 0.32 3.168 0.32s2.016 0.16 3.168 0.16h3.168c1.152 0 2.336-0.16 3.328-0.16a19.392 19.392 0 0 1 2.848-0.32 69.056 69.056 0 0 0 6.336-1.184c1.152-0.32 2.336-0.512 3.488-0.992 0.832-0.16 1.824-0.512 2.848-0.832s2.016-0.672 3.008-1.152l3.84-1.504 210.848-101.504c7.68-3.68 14.656-8.832 20.16-15.328 1.504-1.504 2.656-3.168 4-4.832 0 0 0-0.16 0.16-0.32a75.488 75.488 0 0 0 5.984-10.336c0.16-0.32 0.16-0.512 0.32-0.832 0.672-1.504 1.344-3.008 1.824-4.512l0.512-1.664c0.512-1.504 0.992-3.008 1.344-4.512 0.16-0.512 0.32-0.992 0.32-1.504 0.32-1.504 0.512-3.008 0.832-4.32a10.24 10.24 0 0 1 0.32-2.176c0-1.344 0.16-2.496 0.16-3.84 0.16-1.152 0.16-2.336 0.16-3.328V168.416v-1.504c0-2.016-0.16-4.16-0.32-6.336a63.648 63.648 0 0 0-35.84-49.824L776.768 9.408a63.712 63.712 0 0 0-26.496-6.336z m17.824 292.32v433.344L503.616 512z m-639.68 70.496L260.416 512l-132.16 146.176z" p-id="16719"></path></svg>