<?xml version="1.0" encoding="UTF-8" standalone="no"?>
<svg width="456" height="456" viewBox="0 0 456 456" xmlns="http://www.w3.org/2000/svg">
    <defs>
        <!-- Mask to cut out magnifying glass area from folder -->
        <mask id="folder-mask">
            <rect width="456" height="456" fill="white"/>
            <circle cx="319" cy="300" r="64" fill="black"/>
            <line x1="355" y1="336" x2="396" y2="377" stroke="black" stroke-width="26" stroke-linecap="round"/>
        </mask>
    </defs>
    <!-- Folder body (scaled ~20% larger, centered) -->
    <path d="M60,136 L60,103 C60,90 71,79 84,79 L156,79 C166,79 175,85 180,93 L190,112 C195,121 204,126 214,126 L334,126 C347,126 358,137 358,150 L358,312 C358,325 347,336 334,336 L84,336 C71,336 60,325 60,312 Z" fill="white" mask="url(#folder-mask)"/>
    <!-- Magnifying glass lens (blue tinted glass) -->
    <circle cx="319" cy="300" r="40" fill="#4CC2FF" opacity="0.45"/>
    <!-- Magnifying glass ring -->
    <circle cx="319" cy="300" r="50" fill="none" stroke="white" stroke-width="16"/>
    <!-- Magnifying glass handle -->
    <line x1="355" y1="336" x2="396" y2="377" stroke="white" stroke-width="16" stroke-linecap="round"/>
</svg>
