<svg width="456" height="456" viewBox="0 0 456 456" xmlns="http://www.w3.org/2000/svg">
    <defs>
        <linearGradient id="bg" x1="456" y1="0" x2="0" y2="456" gradientUnits="userSpaceOnUse">
            <stop offset="0" stop-color="#FF7A52"/>
            <stop offset="0.35" stop-color="#F04E8C"/>
            <stop offset="0.65" stop-color="#C24DD6"/>
            <stop offset="1" stop-color="#7B5FEE"/>
        </linearGradient>
        <mask id="folder-mask">
            <rect width="456" height="456" fill="white"/>
            <circle cx="320" cy="312" r="53" fill="black"/>
            <line x1="350" y1="342" x2="384" y2="376" stroke="black" stroke-width="22" stroke-linecap="round"/>
        </mask>
    </defs>
    <rect width="456" height="456" rx="90" fill="url(#bg)"/>
    <path d="M104,175 L104,148 C104,136.95 112.95,128 124,128 L184,128 C192.2,128 199.8,132.6 203.6,139.6 L212.4,155.4 C216.2,162.4 223.8,167 232,167 L332,167 C343.05,167 352,175.95 352,187 L352,322 C352,333.05 343.05,342 332,342 L124,342 C112.95,342 104,333.05 104,322 Z" fill="white" mask="url(#folder-mask)"/>
    <circle cx="320" cy="312" r="42" fill="none" stroke="white" stroke-width="14"/>
    <line x1="350" y1="342" x2="384" y2="376" stroke="white" stroke-width="14" stroke-linecap="round"/>
</svg>
